HIERARCHY
ROOT Hips
{
  OFFSET 0 0 0
  CHANNELS 6 Xposition Yposition Zposition Zrotation Yrotation Xrotation
  JOINT LeftThigh
  {
    OFFSET 8.409438 0 -5.917753
    CHANNELS 3 Zrotation Yrotation Xrotation
    JOINT LeftLeg
    {
      OFFSET 0 0 -42.358652
      CHANNELS 3 Zrotation Yrotation Xrotation
      JOINT LeftFoot
      {
        OFFSET 0 0 -39.357303
        CHANNELS 3 Zrotation Yrotation Xrotation
      }
    }
  }
  JOINT RightThigh
  {
    OFFSET -8.409438 0 -5.917753
    CHANNELS 3 Zrotation Yrotation Xrotation
    JOINT RightLeg
    {
      OFFSET 0 0 -42.358652
      CHANNELS 3 Zrotation Yrotation Xrotation
      JOINT RightFoot
      {
        OFFSET 0 0 -39.357303
        CHANNELS 3 Zrotation Yrotation Xrotation
      }
    }
  }
  JOINT SpineLow
  {
    OFFSET 0 0 4.719101
    CHANNELS 3 Zrotation Yrotation Xrotation
    JOINT SpineMid
    {
      OFFSET 0 0 12.899191
      CHANNELS 3 Zrotation Yrotation Xrotation
      JOINT Chest
      {
        OFFSET 0 0 12.899191
        CHANNELS 3 Zrotation Yrotation Xrotation
        JOINT LeftShoulder
        {
          OFFSET 7.550562 1.41573 9.438202
          CHANNELS 3 Zrotation Yrotation Xrotation
          JOINT LeftArm
          {
            OFFSET 9.155056 0 4.247191
            CHANNELS 3 Zrotation Yrotation Xrotation
            JOINT LeftForearm
            {
              OFFSET 0 0 25.771955
              CHANNELS 3 Zrotation Yrotation Xrotation
              JOINT LeftHand
              {
                OFFSET 0 0 25.197169
                CHANNELS 3 Zrotation Yrotation Xrotation
              }
            }
          }
        }
        JOINT RightShoulder
        {
          OFFSET -7.550562 1.41573 9.438202
          CHANNELS 3 Zrotation Yrotation Xrotation
          JOINT RightArm
          {
            OFFSET -9.155056 0 4.247191
            CHANNELS 3 Zrotation Yrotation Xrotation
            JOINT RightForearm
            {
              OFFSET 0 0 -25.771955
              CHANNELS 3 Zrotation Yrotation Xrotation
              JOINT RightHand
              {
                OFFSET 0 0 -25.197169
                CHANNELS 3 Zrotation Yrotation Xrotation
              }
            }
          }
        }
        JOINT Neck
        {
          OFFSET 0 0 15.101124
          CHANNELS 3 Zrotation Yrotation Xrotation
          JOINT Head
          {
            OFFSET 0 0 11.325843
            CHANNELS 3 Zrotation Yrotation Xrotation
            End Site
            {
              OFFSET 0 0 14.157303
            }
          }
        }
      }
    }
  }
}
MOTION
Frames: 5
Frame Time: 0.0
0.0  101.685394  0.0  -1.100479  -3.051513  -100.822345  10.906133  -21.968048  3.566337  -0.491797  13.165968  27.760919  6.095146  4.256465  4.442832  -12.630984  10.69668  -2.649654  3.03338  2.774079  19.366994  3.171385  1.883824  -0.556756  -4.447685  0.689787  2.840482  -12.061791  2.396024  7.610398  -12.061791  2.396024  7.610397  -13.781783  29.085518  10.495062  173.232238  68.098854  -164.451772  14.896034  -8.567421  10.675693  68.485903  -4.113287  -5.175083  14.474315  -5.41268  14.405119  57.678177  12.914235  33.25672  -9.517245  -23.099696  -96.807539  65.309432  24.714969  0.011124  16.618748  -1.253414  0.256108  12.46409  -0.933913  0.226375  
0.0  101.685394  0.0  -0.984734  -2.475915  -100.570114  10.662816  -21.721123  3.322889  -0.627954  13.093485  27.734327  6.069871  4.253629  4.474529  -13.720152  10.92276  -3.092015  3.260964  2.705506  19.387215  3.364135  1.913583  -0.534152  -4.501673  0.694092  2.814151  -12.209845  2.409019  7.535651  -12.209845  2.409019  7.535651  -13.775374  29.027885  10.339188  172.897535  68.077722  -164.714152  15.153515  -9.325704  11.053682  68.543964  -4.077709  -4.93  14.581037  -5.523103  14.224227  57.009367  13.584218  33.28789  -9.165305  -22.38269  -96.608543  65.491357  24.306282  0.082521  16.550014  -1.261432  0.114828  12.412245  -0.943784  0.120402  
0.0  101.685394  0.0  -0.949777  -2.280814  -100.566623  10.722768  -21.671236  3.264882  -0.888072  13.082478  27.67438  6.043176  4.254011  4.496113  -13.945797  10.998357  -3.090032  3.190872  2.69584  19.359268  3.433823  1.941687  -0.516986  -4.483752  0.693018  2.822756  -12.160667  2.405658  7.560032  -12.160668  2.405658  7.560032  -13.775575  28.966675  10.273331  172.092074  68.126894  -165.267025  15.206979  -10.114187  11.40887  68.558473  -4.098479  -4.547132  14.518253  -5.638535  14.118217  56.487697  14.320183  33.332034  -8.749797  -22.0583  -96.534032  66.102264  23.765168  0.266015  16.433784  -1.232703  -0.027436  12.324806  -0.92606  0.012601  
0.0  101.685394  0.0  -0.889862  -2.259921  -100.600992  11.069182  -21.706097  3.288187  -1.024432  13.048044  27.706673  5.79466  4.241381  4.409388  -14.058348  11.074985  -3.100316  3.252887  2.675718  19.395106  3.385845  1.958315  -0.521097  -4.428111  0.697956  2.849742  -12.007087  2.417685  7.635005  -12.007087  2.417685  7.635005  -13.829392  28.844426  10.125573  171.622228  68.015967  -165.643844  15.366814  -11.118722  11.993412  68.496221  -4.087617  -4.02628  14.327862  -5.808824  13.864371  56.135039  14.97275  33.372578  -8.539148  -21.688507  -96.409952  66.734838  22.990086  0.408059  16.305695  -1.22872  -0.200174  12.228402  -0.927667  -0.117423  
0.0  101.685394  0.0  -0.847327  -2.370496  -100.665631  11.49073  -21.792582  3.317  -1.3605  13.130652  27.578181  5.769808  4.230964  4.418504  -13.838124  11.091371  -2.975397  3.048184  2.722628  19.373268  3.472984  1.954144  -0.515763  -4.378913  0.696658  2.87261  -11.871938  2.412636  7.699595  -11.871938  2.412636  7.699595  -13.713972  28.749819  10.019153  171.052456  67.955459  -165.964905  15.416475  -12.051296  12.542503  68.422037  -4.105197  -3.442203  14.432487  -5.923912  13.735197  55.963677  15.57238  33.348505  -8.585474  -21.098926  -96.068509  67.357744  22.167446  0.570033  16.25574  -1.154805  -0.345972  12.190744  -0.876045  -0.228929  
